<?xml version="1.0" encoding="utf-8"?>
<!-- Generator: Adobe Illustrator 18.1.1, SVG Export Plug-In . SVG Version: 6.00 Build 0)  -->
<svg version="1.1" id="Layer_1" xmlns="http://www.w3.org/2000/svg" xmlns:xlink="http://www.w3.org/1999/xlink" x="0px" y="0px"
	 viewBox="672.8 83.7 340.6 998.7" enable-background="new 672.8 83.7 340.6 998.7" xml:space="preserve">
<g id="body">
	<g>
		<path fill="#EAD2AC" d="M933.5,795.1c0,0-44.1-14.4-44.1-69.6c0-55.2,58.6-20.1,59.4,5.1C949.6,755.8,943.8,789.3,933.5,795.1z"/>
		<path fill="#EAD2AC" d="M754.1,786.2c0,0,44.1-14.4,44.1-69.6c0-55.2-58.6-20.1-59.4,5.1C738.1,746.8,743.9,780.4,754.1,786.2z"/>
		<g>
			<path fill="#EAD2AC" d="M932.6,743.4c0.8,13.5-14.4,30.7-20.4,37.9c-6,7.3,0.4,19.9,6,14.4c5.5-5.5,8.6-9.6,8.6-9.6"/>
			<path fill="#231F20" d="M915.3,799.6c-1.5,0-3-0.6-4.3-1.8c-4.2-3.8-5.4-12.4-0.7-18c0.4-0.5,0.9-1.1,1.4-1.7
				c6.2-7.4,19.1-22.9,18.5-34.5c-0.1-1.4,1-2.6,2.4-2.6c1.4-0.1,2.6,1,2.6,2.4c0.8,13.6-12.5,29.5-19.6,38c-0.5,0.6-1,1.2-1.4,1.7
				c-3,3.6-1.9,9.2,0.2,11.2c0.7,0.6,1.2,0.8,2.1-0.1c5.3-5.3,8.3-9.3,8.3-9.3c0.8-1.1,2.4-1.3,3.5-0.5c1.1,0.8,1.3,2.4,0.5,3.5
				c-0.1,0.2-3.2,4.3-8.8,9.8C918.6,798.9,916.9,799.6,915.3,799.6z"/>
		</g>
		<g>
			<path fill="#EAD2AC" d="M959.7,748.3c0,0-2.3,28.7-24.9,49.6c-7.3,8.7-14.4-4.2-8-11.8c6.4-7.5,2.9-7,2.9-7"/>
			<path fill="#231F20" d="M929.8,803.3c-0.4,0-0.8,0-1.1-0.1c-2.7-0.5-5-2.7-6.2-5.9c-1.2-3.4-1.3-8.6,2.3-12.8
				c1.6-1.9,2.5-3.2,2.9-3.9c-0.3-0.3-0.4-0.7-0.5-1.2c-0.2-1.4,0.8-2.6,2.1-2.8c1.1-0.2,2.6,0.3,3.4,1.6c1.1,2.1,0,4.7-4,9.5
				c-2.2,2.6-2.2,5.9-1.4,7.9c0.5,1.4,1.4,2.5,2.3,2.6c0.9,0.2,2.1-0.6,3.3-2c0.1-0.1,0.1-0.2,0.2-0.2
				c21.6-19.9,24.1-47.6,24.1-47.9c0.1-1.4,1.3-2.4,2.7-2.3c1.4,0.1,2.4,1.3,2.3,2.7c-0.1,1.2-2.6,29.9-25.6,51.1
				C934.1,802.6,931.5,803.3,929.8,803.3z"/>
		</g>
		<g>
			<path fill="#EAD2AC" d="M748.2,743.4c-0.8,13.5,14.4,30.7,20.4,37.9c6,7.3-0.4,19.9-6,14.4c-5.6-5.5-8.6-9.6-8.6-9.6"/>
			<path fill="#231F20" d="M765.5,799.6c-1.6,0-3.2-0.7-4.6-2.1c-5.7-5.6-8.7-9.7-8.8-9.9c-0.8-1.1-0.5-2.7,0.6-3.5
				c1.1-0.8,2.7-0.6,3.5,0.6c0,0,2.9,4,8.3,9.3c0.9,0.9,1.4,0.7,2.1,0.1c2.2-2,3.2-7.6,0.2-11.2c-0.4-0.5-0.9-1.1-1.4-1.7
				c-7.1-8.5-20.4-24.4-19.6-38c0.1-1.4,1.2-2.4,2.6-2.4c1.4,0.1,2.4,1.3,2.4,2.6c-0.7,11.6,12.3,27.1,18.5,34.5
				c0.5,0.6,1,1.2,1.4,1.7c4.7,5.7,3.5,14.2-0.7,18C768.5,799,767,799.6,765.5,799.6z"/>
		</g>
		<g>
			<path fill="#EAD2AC" d="M721.1,748.3c0,0,2.3,28.7,24.9,49.6c7.3,8.7,14.4-4.2,8-11.8c-6.4-7.5-2.9-7-2.9-7"/>
			<path fill="#231F20" d="M751,803.3c-1.7,0-4.2-0.7-6.8-3.7c-23-21.2-25.5-49.9-25.6-51.1c-0.1-1.4,0.9-2.6,2.3-2.7
				c1.3-0.1,2.6,0.9,2.7,2.3l0,0c0,0.3,2.5,28,24.1,47.9c0.1,0.1,0.2,0.2,0.2,0.2c1.2,1.4,2.4,2.1,3.3,2c0.9-0.2,1.8-1.2,2.3-2.6
				c0.7-2,0.8-5.3-1.4-7.9c-4.1-4.8-5.2-7.5-4-9.5c0.7-1.3,2.2-1.8,3.4-1.6c1.4,0.2,2.3,1.5,2.1,2.8c-0.1,0.4-0.2,0.8-0.5,1.2
				c0.4,0.7,1.2,1.9,2.9,3.9c3.6,4.2,3.5,9.4,2.3,12.8c-1.1,3.2-3.5,5.4-6.2,5.9C751.8,803.3,751.4,803.3,751,803.3z"/>
		</g>
		<g>
			<path fill="#EAD2AC" d="M928,716.5c-3.8,18.8,2.2,20.2,14.9,24.3c0,0-1.7,8.7-11.9,27c-7.9,16.5,7.7,16.6,12.4,7.5
				c0,0,5.1-7.5,10.7-16.6c23.5-35.4,0-65.3,0-65.3V560.6c1.7-48.5-42.5-45.2-42.5-45.2l-41.4-12.8h-0.4c0,0-5.7-17.9,0-43.4h-58.8
				c5.7,25.5,0,43.4,0,43.4h-0.4l-41.4,12.8c0,0-44.3-3.3-42.5,45.2v132.8c0,0-23.5,29.9,0,65.3c5.6,9.1,10.7,16.6,10.7,16.6
				c4.7,9.1,20.3,8.9,12.4-7.5c-10.2-18.3-11.9-27-11.9-27c12.8-4.1,18.8-5.5,14.9-24.3"/>
			<path fill="#231F20" d="M934.2,783.8c-1.3,0-2.6-0.3-3.8-0.8c-1.8-0.9-7.2-4.7-1.6-16.3c0,0,0-0.1,0.1-0.1
				c7-12.6,9.9-20.5,11-24.1c-12.5-4.1-18.2-7.4-14.4-26.4c0.3-1.4,1.6-2.2,2.9-1.9c1.4,0.3,2.2,1.6,1.9,2.9
				c-3.3,16.1,0.3,17.3,12.3,21.1l0.9,0.3c1.2,0.4,1.9,1.6,1.7,2.9c-0.1,0.4-1.9,9.3-12.1,27.6c-2.3,4.9-2.6,8.6-0.6,9.6
				c2,1,6.5-0.4,8.6-4.4c0-0.1,0.1-0.2,0.1-0.2c0.1-0.1,5.1-7.6,10.7-16.5c22.3-33.6,0.4-62.1,0.2-62.4c-0.3-0.4-0.5-1-0.5-1.5
				V560.6c0.5-14.4-3.1-25.4-10.7-32.7c-11.7-11.2-29-10-29.1-10c-0.3,0-0.6,0-0.9-0.1l-41-12.7c-1.1,0-2-0.7-2.4-1.7
				c-0.2-0.7-5.4-17.4-0.7-41.7h-52.6c4.7,24.3-0.5,41-0.7,41.7c-0.3,1-1.3,1.7-2.4,1.7h0l-41,12.7c-0.3,0.1-0.6,0.1-0.9,0.1
				c-0.2,0-17.6-1.1-29.3,10.1c-7.6,7.3-11.1,18.2-10.6,32.5l0,132.9c0,0.6-0.2,1.1-0.5,1.5c-0.9,1.2-22.1,29,0.1,62.3
				c5.6,9,10.7,16.5,10.7,16.6c0.1,0.1,0.1,0.2,0.1,0.2c2.1,4,6.6,5.4,8.6,4.4c2-1,1.7-4.7-0.6-9.6c-10.3-18.4-12-27.3-12.1-27.6
				c-0.2-1.2,0.5-2.5,1.7-2.9l0.9-0.3c12-3.8,15.6-5,12.3-21.1c-0.3-1.4,0.6-2.7,1.9-2.9c1.4-0.3,2.7,0.6,2.9,1.9
				c3.9,19-1.9,22.4-14.4,26.4c1.1,3.5,4,11.5,11,24.1c0,0,0,0.1,0.1,0.1c5.6,11.6,0.2,15.4-1.6,16.3c-4.9,2.4-12.1-0.6-15.2-6.4
				c-0.7-1-5.5-8.2-10.7-16.6c-22.1-33.3-3.8-62.4-0.4-67.4v-132c-0.6-15.7,3.5-27.9,12.2-36.3c12.2-11.8,29.4-11.6,32.6-11.5
				l40.1-12.4c1.1-4.5,4.2-20.2-0.4-40.8c-0.2-0.7,0-1.5,0.5-2.1c0.5-0.6,1.2-0.9,2-0.9h58.8c0.8,0,1.5,0.3,2,0.9
				c0.5,0.6,0.7,1.4,0.5,2.1c-4.7,20.7-1.6,36.2-0.4,40.8l40.1,12.4c3.2-0.1,20.2-0.3,32.5,11.4c8.7,8.3,12.8,20.6,12.2,36.4
				l0,131.9c3.5,5,21.7,34.1-0.4,67.5c-5.2,8.3-10,15.5-10.7,16.5C943.3,781,938.5,783.8,934.2,783.8z"/>
		</g>
		<g>
			<path fill="#EAD2AC" d="M946.8,321.2c0,0,0.1,12.4,12.1-7.7c31.8-60.3-11.5-76.4-11.5-54.5c0,0,13-119.2-103.6-119.2h-0.1
				C727.1,139.8,740.1,259,740.1,259c0-22-44.5-5.6-12.6,54.7c12,20.1,12.1,7.7,12.1,7.7"/>
			<path fill="#231F20" d="M737.5,327.6c-3.2,0-6.9-3.8-12.1-12.7c0,0,0-0.1-0.1-0.1c-20.5-38.9-8.8-57.1-4.7-61.7
				c4.5-5.1,10.5-7.1,15.4-5.3c0.4,0.2,0.8,0.3,1.2,0.5c0-17.9,3.2-53.9,26.9-80.3c18.3-20.4,45.1-30.8,79.7-30.8h0.1
				c34.6,0,61.4,10.3,79.7,30.8c23.7,26.4,26.9,62.4,26.9,80.3c0.3-0.2,0.7-0.3,1.1-0.5c4.7-1.8,10.5,0.2,14.7,5
				c4,4.6,15.6,22.6-5.1,61.8c0,0,0,0.1-0.1,0.1c-5.9,9.8-9.7,13.5-13.2,12.5c-3.3-0.9-3.5-5.3-3.5-6.1c0-1.4,1.1-2.5,2.5-2.5
				c0,0,0,0,0,0c1.4,0,2.5,1.1,2.5,2.5l0,0c0,0.3,0,0.6,0.1,1c1-0.8,3.3-3.1,7.3-9.8c10-19,16.7-43.7,5.7-56.1
				c-2.8-3.2-6.5-4.7-9.2-3.7c-1.6,0.6-2.7,2.1-3.1,4.3c-0.1,1.4-0.2,2.2-0.2,2.5c-0.1,1.3-1.3,2.3-2.6,2.2
				c-1.3-0.1-2.4-1.2-2.4-2.5c0-0.9,0.1-1.7,0.2-2.5c0.6-10.5,1.6-55.1-25.3-85.1c-17.3-19.3-42.9-29.1-76-29.1h-0.1
				c-33.1,0-58.7,9.8-76,29.1c-26.9,30-26,74.4-25.3,85c0.1,0.8,0.2,1.7,0.2,2.6c0,1.3-1,2.4-2.4,2.5c-1.3,0.1-2.5-0.9-2.6-2.2
				c0-0.2-0.1-1.1-0.2-2.4c-0.4-2.2-1.5-3.7-3.2-4.3c-2.4-0.9-6.4,0-9.9,3.9c-11.2,12.6-4.6,37.2,5.3,56c4.1,6.8,6.3,9,7.3,9.8
				c0.1-0.3,0.1-0.7,0.1-1c0-1.4,1.2-2.4,2.5-2.5c1.4,0,2.5,1.1,2.5,2.5c0,0.9-0.2,5.2-3.5,6.1C738.2,327.6,737.9,327.6,737.5,327.6
				z"/>
		</g>
		<g>
			<g>
				<path fill="#EAD2AC" d="M945.4,284.7c0,0,8,74.7-21.6,127.1c-15.2,26.8-37.3,49.3-80.2,49.3h-1.1c-42.9,0-65-22.6-80.2-49.3
					c-29.6-52.4-21.6-127.1-21.6-127.1"/>
			</g>
			<g>
				<path fill="#231F20" d="M843.6,464.2h-1.2c-20.5,0-37.5-5-51.9-15.2c-11.6-8.3-21.3-19.6-30.4-35.7
					c-29.7-52.5-22-128.1-21.9-128.8c0.1-1.4,1.4-2.4,2.8-2.2c1.4,0.1,2.4,1.4,2.2,2.8c-0.1,0.7-7.6,74.8,21.3,125.8
					c12.8,22.5,33.2,48.4,78,48.4h1.2c44.9,0,65.3-25.9,78-48.4c28.9-51.1,21.4-125.1,21.3-125.8c-0.1-1.4,0.8-2.6,2.2-2.8
					c1.4-0.1,2.6,0.8,2.8,2.2c0.1,0.8,7.8,76.4-21.9,128.8c-9.1,16.1-18.8,27.5-30.4,35.7C881.1,459.2,864.1,464.2,843.6,464.2z"/>
			</g>
		</g>
		<g>
			<path fill="#EAD2AC" d="M770.9,576v420.2c0,0-39.6,30.7-67.1,30.7c-27.5,0-29.4,23.6-18.5,30s41.3,18.5,80.9,11.5
				s76.3-16.6,76.3-26.8s0-45.3,0-45.3l1.1-228.5l-1.1,215.7v12.8c0,0,0,35.1,0,45.3s36.8,19.9,76.4,27s70-5,80.9-11.4
				s8.9-29.9-18.5-29.9s-70.9-30.4-70.9-30.4h-0.1V576"/>
			<path fill="#231F20" d="M943,1073.2c-7.6,0-15.8-0.6-24.6-2.2c-22.3-4-40.3-8.1-53.4-12.4c-11.6-3.8-19-7.5-22.6-11.4
				c-3.5,3.9-10.9,7.6-22.5,11.3c-13,4.2-30.9,8.3-53.3,12.3c-8.6,1.5-16.8,2.2-24.3,2.2c-33.3,0-55.3-12.3-58.2-14
				c-6-3.5-8.8-11.2-6.7-18.7c1-3.7,5.9-16,26.5-16c24,0,58.4-24.8,64.6-29.4V576c0-1.4,1.1-2.5,2.5-2.5s2.5,1.1,2.5,2.5v420.2
				c0,0.8-0.4,1.5-1,2c-1.6,1.3-40.6,31.2-68.6,31.2c-11.5,0-19.6,4.6-21.7,12.3c-1.4,5.2,0.5,10.7,4.5,13.1
				c3.4,2,34.2,19.2,79.1,11.2c70.6-12.5,74.2-22.5,74.2-24.4v-58.1l1.2-215.8c0-1.4,1.1-2.5,2.5-2.5c0,0,0,0,0,0
				c1.4,0,2.5,1.1,2.5,2.5v0L845,996.3v45.3c0,5.2,19.5,14.8,74.3,24.5c45.1,8,75.8-9.1,79.1-11.1c4-2.4,5.9-7.8,4.5-13
				c-2.1-7.7-10.2-12.2-21.7-12.2c-26.8,0-67.1-27.2-71.9-30.6c-0.9-0.4-1.6-1.3-1.6-2.3V576c0-1.4,1.1-2.5,2.5-2.5s2.5,1.1,2.5,2.5
				v419.5c6.4,4.4,44.3,29.3,68.5,29.3c20.6,0,25.5,12.2,26.5,15.9c2,7.4-0.7,15.1-6.8,18.6C998.1,1061,976.2,1073.2,943,1073.2z"/>
		</g>
		<g>
			<g>
				<ellipse fill="#FFFFFF" cx="795.2" cy="272.7" rx="31.3" ry="22.4"/>
				<path fill="#231F20" d="M795.2,297.5c-18.6,0-33.8-11.1-33.8-24.9c0-13.7,15.2-24.9,33.8-24.9S829,259,829,272.7
					C829,286.4,813.8,297.5,795.2,297.5z M795.2,252.8c-15.9,0-28.8,8.9-28.8,19.9s12.9,19.9,28.8,19.9s28.8-8.9,28.8-19.9
					S811.1,252.8,795.2,252.8z"/>
			</g>
			<g>
				<circle fill="#FFFFFF" cx="796.5" cy="270.8" r="3.2"/>
				<path fill="#231F20" d="M796.5,276.5c-3.1,0-5.7-2.6-5.7-5.7s2.6-5.7,5.7-5.7s5.7,2.6,5.7,5.7S799.6,276.5,796.5,276.5z
					 M796.5,270.1c-0.4,0-0.7,0.3-0.7,0.7c0,0.4,0.3,0.7,0.7,0.7s0.7-0.3,0.7-0.7C797.2,270.4,796.9,270.1,796.5,270.1z"/>
			</g>
			<circle fill="#FFFFFF" cx="793.9" cy="269.2" r="1.9"/>
			<g>
				<path fill="#EAD2AC" d="M824.2,262.1c-25.8-2.8-59.3,4.7-59.3,4.7C774.1,242.3,815.4,245.5,824.2,262.1z"/>
				<path fill="#231F20" d="M764.9,269.3c-0.7,0-1.4-0.3-1.9-0.9c-0.6-0.7-0.8-1.7-0.5-2.5c4.6-12.2,16.8-19.4,32.8-19.4
					c14,0,26.4,5.8,31,14.4c0.4,0.8,0.4,1.8-0.1,2.6c-0.5,0.8-1.4,1.2-2.3,1.1c-3.7-0.4-7.9-0.6-12.3-0.6c-22.4,0-45.9,5.2-46.1,5.3
					C765.3,269.3,765.1,269.3,764.9,269.3z M795.4,251.5c-11.7,0-21.1,4.3-25.9,11.8c8.3-1.6,25.5-4.4,42.2-4.4
					c2.4,0,4.8,0.1,7.1,0.2C813.6,254.5,804.8,251.5,795.4,251.5z"/>
			</g>
		</g>
		<path fill="#231F20" d="M855.1,363.7c-4.4,0-8.9-0.6-13.3-1.7c-1.3-0.3-2.1-1.7-1.8-3s1.7-2.1,3-1.8c13,3.4,27.3,1,34-5.7
			c2.8-2.8,4-7,3-10.9c-1.1-4.6-4.6-8.1-9.9-9.9c-0.4-0.1-0.7-0.3-1-0.6c-4.5-4.7-9.5-17.7-14.9-38.8c-3.9-15.4-6.7-29.8-6.7-29.9
			c-0.3-1.4,0.6-2.7,2-2.9c1.4-0.3,2.7,0.6,2.9,2c2.9,15.4,12.1,56.7,19.9,65.8c6.6,2.4,11.1,7.2,12.5,13.3
			c1.3,5.7-0.3,11.5-4.4,15.6C875,360.6,865.4,363.7,855.1,363.7z"/>
		<path fill="#231F20" d="M826.5,355.6c-0.3,0-0.5,0-0.8-0.1c-5.3-1.8-8.1-6.9-7.2-12.8c0.9-5.4,5.4-11.3,13.1-11.3
			c1.4,0,2.5,1.1,2.5,2.5s-1.1,2.5-2.5,2.5c-4.8,0-7.6,3.6-8.1,7.1c-0.4,2.7,0.3,6,3.8,7.2c1.3,0.4,2,1.9,1.6,3.2
			C828.5,355,827.5,355.6,826.5,355.6z"/>
		<path fill="#231F20" d="M831.7,428.8c-13.3,0-23.8-3.7-31.2-11.1c-7.3-7.3-11.6-18.4-12.2-32c-0.5-10.1,1.2-18.1,1.2-18.4
			c0.2-1,1.1-1.8,2.1-2c1.1-0.1,2.1,0.4,2.6,1.4c16.8,34.2,71.9,23,72.5,22.9c1.3-0.3,2.7,0.6,3,1.9s-0.6,2.7-1.9,3
			c-0.6,0.1-14.9,3.1-31.7,1.6c-19.4-1.8-33.9-8.9-42.6-20.9c-0.8,9.9-0.6,28,10.5,39c9.5,9.5,25.3,12,46.8,7.4
			c1.3-0.3,2.7,0.6,3,1.9c0.3,1.4-0.6,2.7-1.9,3C844.6,428.1,837.8,428.8,831.7,428.8z"/>
		<path fill="#231F20" d="M781.2,380.7c-0.1,0-0.3,0-0.4,0c-1.4-0.2-2.3-1.5-2-2.9c2.3-13,15.4-17.6,22-18.2
			c1.4-0.1,2.6,0.9,2.7,2.3c0.1,1.4-0.9,2.6-2.3,2.7l0,0c-0.6,0.1-15.4,1.6-17.6,14C783.4,379.8,782.3,380.7,781.2,380.7z"/>
		<g>
			<path fill="#FFFFFF" d="M859.1,393.4v8.9c0,0-33.8,13.2-67.1-6.8c0,0-3.2-10.5,0-27.7C807.6,392.7,835.4,396.6,859.1,393.4z"/>
			<path fill="#231F20" d="M832.5,409.1c-15.2,0-29.2-3.8-41.8-11.4c-0.5-0.3-0.9-0.8-1.1-1.4c-0.1-0.5-3.3-11.3-0.1-28.9
				c0.2-1,1-1.8,2-2c1-0.2,2,0.3,2.6,1.1c13.1,20.9,35,25.3,51.1,25.3c4.4,0,8.9-0.3,13.5-0.9c0.7-0.1,1.4,0.1,2,0.6
				c0.5,0.5,0.9,1.2,0.9,1.9v8.9c0,1-0.6,2-1.6,2.3C859.5,404.8,848.4,409.1,832.5,409.1z M794.2,393.9
				c11.6,6.7,24.5,10.2,38.4,10.2c11.5,0,20.5-2.4,24-3.5v-4.3c-3.9,0.4-7.7,0.6-11.4,0.6c0,0,0,0,0,0c-22.3,0-40-7.7-51.6-22.5
				C792.4,384.6,793.6,391.6,794.2,393.9z"/>
		</g>
		<g>
			<path fill="#231F20" d="M842.5,406c0,0-20.4,9.5-5.1,20.2c0,0-34.4,1.9-44.2-26.2C793.2,400,817.9,411.4,842.5,406z"/>
			<path fill="#231F20" d="M836,426.7c-5.7,0-34.4-1.3-43.3-26.5c-0.1-0.2,0-0.4,0.1-0.5c0.1-0.1,0.4-0.2,0.5-0.1
				c0.2,0.1,16.4,7.4,35.2,7.4c4.8,0,9.5-0.5,13.8-1.4c0.2-0.1,0.5,0.1,0.6,0.3c0.1,0.2,0,0.5-0.3,0.6c-0.1,0-9.9,4.7-10.5,10.9
				c-0.3,2.9,1.6,5.7,5.5,8.5c0.2,0.1,0.3,0.3,0.2,0.5c-0.1,0.2-0.2,0.4-0.5,0.4C837.4,426.7,836.9,426.7,836,426.7z M794,400.9
				c9,23.5,36.2,24.8,41.9,24.8c-3.4-2.7-5-5.5-4.7-8.5c0.4-4.6,5.1-8.2,8.3-10.1c-3.5,0.6-7.1,0.9-10.9,0.9c0,0,0,0,0,0
				C812.3,408,798,402.6,794,400.9z"/>
		</g>
		<g>
			<g>
				<ellipse fill="#FFFFFF" cx="893.6" cy="274" rx="31.3" ry="22.4"/>
				<path fill="#231F20" d="M893.6,298.8c-18.6,0-33.8-11.1-33.8-24.9c0-13.7,15.2-24.9,33.8-24.9s33.8,11.1,33.8,24.9
					C927.3,287.7,912.2,298.8,893.6,298.8z M893.6,254.1c-15.9,0-28.8,8.9-28.8,19.9s12.9,19.9,28.8,19.9s28.8-8.9,28.8-19.9
					S909.4,254.1,893.6,254.1z"/>
			</g>
			<g>
				<circle fill="#FFFFFF" cx="892.3" cy="272" r="3.2"/>
				<path fill="#231F20" d="M892.3,277.7c-3.1,0-5.7-2.6-5.7-5.7s2.6-5.7,5.7-5.7s5.7,2.6,5.7,5.7S895.4,277.7,892.3,277.7z
					 M892.3,271.3c-0.4,0-0.7,0.3-0.7,0.7c0,0.4,0.3,0.7,0.7,0.7s0.7-0.3,0.7-0.7C893,271.7,892.7,271.3,892.3,271.3z"/>
			</g>
			<circle fill="#FFFFFF" cx="894.8" cy="270.5" r="1.9"/>
			<g>
				<path fill="#EAD2AC" d="M864.7,263.4c25.8-2.8,59.3,4.7,59.3,4.7C914.8,243.6,873.5,246.8,864.7,263.4z"/>
				<path fill="#231F20" d="M924,270.6c-0.2,0-0.4,0-0.5-0.1c-0.2-0.1-23.8-5.3-46.1-5.3c-4.4,0-8.6,0.2-12.3,0.6
					c-0.9,0.1-1.8-0.3-2.3-1.1c-0.5-0.8-0.6-1.8-0.1-2.6c4.6-8.6,17-14.4,31-14.4c16,0,28.3,7.3,32.8,19.4c0.3,0.9,0.1,1.8-0.5,2.5
					C925.4,270.3,924.7,270.6,924,270.6z M877.3,260.2c16.6,0,33.9,2.8,42.2,4.4c-4.9-7.5-14.2-11.8-25.9-11.8
					c-9.4,0-18.2,3-23.3,7.6C872.4,260.3,874.8,260.2,877.3,260.2z"/>
			</g>
		</g>
		<g>
			<path fill="#231F20" d="M776.7,242c0,0,26.8,2.6,51.5-10.9l-4.1-9.6C823.9,221.6,808.4,236.3,776.7,242z"/>
			<path fill="#231F20" d="M782.2,242.7C782.2,242.7,782.2,242.7,782.2,242.7c-3.5,0-5.5-0.2-5.6-0.2c-0.2,0-0.4-0.2-0.5-0.5
				c0-0.2,0.2-0.5,0.4-0.5c27.3-5,42.8-16.7,46.9-20.1c0.3-0.2,0.4-0.3,0.6-0.3c0.2,0,0.4,0.1,0.5,0.3l4.1,9.6
				c0.1,0.2,0,0.5-0.2,0.6C810.6,241.3,791.8,242.7,782.2,242.7z M780.9,241.7c0.4,0,0.9,0,1.3,0c0,0,0,0,0,0
				c9.5,0,27.9-1.4,45.3-10.8l-3.6-8.5C819.6,226,805.3,236.5,780.9,241.7z"/>
		</g>
		<g>
			<path fill="#231F20" d="M908.1,245.5c0,0-17.1-20.8-44.1-28.7l-3.8,9.7C860.3,226.4,881.7,227.1,908.1,245.5z"/>
			<path fill="#231F20" d="M908.1,246c-0.1,0-0.2,0-0.3-0.1c-26.3-18.3-47.4-18.9-47.6-18.9c-0.2,0-0.3-0.1-0.4-0.2
				c-0.1-0.1-0.1-0.3,0-0.5l3.8-9.7c0.1-0.2,0.4-0.4,0.6-0.3c26.8,7.9,44.1,28.7,44.3,28.9c0.2,0.2,0.2,0.5,0,0.7
				C908.4,245.9,908.2,246,908.1,246z M860.9,226c3.7,0.3,21.6,2.2,44,16.7c-5.9-6-20.5-19.3-40.6-25.4L860.9,226z"/>
		</g>
		<g>
			<path fill="#EAD2AC" d="M770.9,763.2c0,0-8-15.6-9.6-26.6"/>
			<path fill="#231F20" d="M770.9,765.7c-0.9,0-1.8-0.5-2.2-1.4c-0.3-0.7-8.3-16.1-9.8-27.4c-0.2-1.4,0.8-2.6,2.1-2.8
				c1.4-0.2,2.6,0.8,2.8,2.1c1.5,10.4,9.2,25.6,9.3,25.8c0.6,1.2,0.2,2.7-1.1,3.4C771.7,765.6,771.3,765.7,770.9,765.7z"/>
		</g>
		<path fill="none" stroke="#231F20" stroke-width="5" stroke-linecap="round" stroke-linejoin="round" stroke-miterlimit="10" d="
			M748.2,743.4"/>
		<path fill="none" stroke="#231F20" stroke-width="5" stroke-linecap="round" stroke-linejoin="round" stroke-miterlimit="10" d="
			M770.9,724.5"/>
		<path fill="none" stroke="#231F20" stroke-width="5" stroke-linecap="round" stroke-linejoin="round" stroke-miterlimit="10" d="
			M946.4,620.2"/>
		<path fill="#231F20" d="M909.8,765.7c-0.4,0-0.8-0.1-1.1-0.3c-1.2-0.6-1.7-2.1-1.1-3.4c0.1-0.2,7.9-15.3,9.3-25.8
			c0.2-1.4,1.5-2.3,2.8-2.1c1.4,0.2,2.3,1.5,2.1,2.8c-1.6,11.3-9.5,26.7-9.8,27.4C911.6,765.2,910.7,765.7,909.8,765.7z"/>
		<path fill="none" stroke="#231F20" stroke-width="5" stroke-linecap="round" stroke-linejoin="round" stroke-miterlimit="10" d="
			M932.6,743.4"/>
	</g>
</g>
<g id="underwear">
	<g>
		<g>
			<polygon fill="#FFFFFF" points="910.2,710.8 770.9,710.8 770.9,806.6 843.1,806.6 910.2,806.6 			"/>
			<path fill="#231F20" d="M910.2,809.1H770.9c-1.4,0-2.5-1.1-2.5-2.5v-95.8c0-1.4,1.1-2.5,2.5-2.5h139.2c1.4,0,2.5,1.1,2.5,2.5
				v95.8C912.7,808,911.5,809.1,910.2,809.1z M773.4,804.1h134.2v-90.8H773.4V804.1z"/>
		</g>
		<g>
			<path fill="#FFFFFF" d="M817.6,751.7c0,0,11.8,7,26.3,7l-0.8,47.9"/>
			<path fill="#231F20" d="M843.1,809.1C843.1,809.1,843.1,809.1,843.1,809.1c-1.4,0-2.5-1.2-2.5-2.5l0.7-45.4
				c-13.9-0.7-24.6-7-25.1-7.3c-1.2-0.7-1.6-2.2-0.9-3.4c0.7-1.2,2.2-1.6,3.4-0.9l0,0c0.1,0.1,11.4,6.7,25,6.7
				c0.7,0,1.3,0.3,1.8,0.7c0.5,0.5,0.7,1.1,0.7,1.8l-0.8,47.9C845.6,808,844.5,809.1,843.1,809.1z"/>
		</g>
		<g>
			<path fill="#FFFFFF" d="M864.2,751.7c0,0-7.4,7-20.3,7"/>
			<path fill="#231F20" d="M843.9,761.2c-1.4,0-2.5-1.1-2.5-2.5s1.1-2.5,2.5-2.5c11.7,0,18.5-6.3,18.6-6.3c1-0.9,2.6-0.9,3.5,0.1
				c0.9,1,0.9,2.6-0.1,3.5C865.6,753.8,857.6,761.2,843.9,761.2z"/>
		</g>
		<g>
			<path fill="#FFFFFF" d="M843.1,564.4c-48.5,0-31.9-61.9-31.9-61.9l-19.4,5.9c0,0-5.2,23.1-5.7,39.5c-0.6,19-2.9,69.2-15.1,69.2
				v97.5h138.6v-97.3c-12.1,0-12-50.3-12.5-69.2c-0.5-16.3-5.7-38.2-5.7-38.2l-20.6-7.2c0,0,18,61.9-30.5,61.9"/>
			<path fill="#231F20" d="M909.5,717H770.9c-1.4,0-2.5-1.1-2.5-2.5V617c0-1.4,1.1-2.5,2.5-2.5c1.7,0,10.4-3.2,12.6-66.8
				c0.5-16.4,5.6-39,5.8-39.9c0.2-0.9,0.9-1.6,1.7-1.8l19.4-5.9c0.9-0.3,1.8,0,2.5,0.6s0.9,1.6,0.7,2.4c-0.1,0.3-8.3,31.6,4.6,48.3
				c5.3,6.9,13.7,10.5,24.9,10.5c0.1,0,0.2,0,0.3,0c9.5-0.6,16.7-4.1,21.3-10.2c12.5-16.7,3.6-48.1,3.5-48.4c-0.3-0.9,0-1.9,0.7-2.5
				c0.7-0.6,1.7-0.9,2.5-0.5l20.6,7.2c0.8,0.3,1.4,1,1.6,1.8c0.2,0.9,5.3,22.3,5.8,38.7c0,1.7,0.1,3.6,0.1,5.7
				c0.2,10.6,0.6,26.6,2.2,39.6c2.6,20.4,6.9,21.4,7.7,21.4c0.7,0,1.3,0.3,1.8,0.7s0.7,1.1,0.7,1.8v97.3
				C912,715.9,910.9,717,909.5,717z M773.4,712H907v-92.8c-10.2-4.2-11.7-34.5-12.4-65.5c0-2.1-0.1-4-0.1-5.7
				c-0.4-13.6-4.3-31.4-5.4-36.4l-14.9-5.2c0.7,3.5,1.7,8.6,2.1,14.6c1,14.4-1.5,25.8-7.5,33.7c-6.2,8.2-15.8,12.4-28.6,12.4
				c-0.4,0-0.8-0.1-1.1-0.3c-10.9-0.8-19.2-4.9-24.8-12.3c-6.1-7.9-8.8-19.2-8.2-33.6c0.3-6.1,1.1-11.3,1.8-14.8l-13.9,4.2
				c-1.1,5.2-5,24-5.4,37.6c-1.9,56.3-9,69-15.1,71.2V712z"/>
		</g>
	</g>
</g>
<g id="hair">
	<g>
		<path fill="#664938" d="M948.9,256.8c-0.9,12.5-11.2,17.1-11.2,17.1c0.4-12.5,0-47-6.4-57.2c-6.4-10.2-16.2-37.6-17-41.8
			c-0.9-4.2-33.6-1.7-44.7,2.9c-11.1,4.7-47.3,4.7-60.4,1.7c-13.2-2.9-38.4-14.9-38.8,0c-0.4,14.9-5.1,25.2-15.3,39.6
			c-10.2,14.4-9.3,53.1-9.3,53.1c-6.4-5.2-6.9-15.5-6.9-15.5s-5.6-17-10.5-10.5c0,0-1.4-29.3,4.3-56.1s10.2-30.7,17.9-33.2
			c0,0-3.8-17.2,22.4-37s59.9-33.8,91.3-33.8c31.3,0,77.9,2.6,77.9,46.6s-4.5,37-1.3,50.5C944,196.7,950.5,233.3,948.9,256.8z"/>
		<path fill="#231F20" d="M937.6,276.5c-0.5,0-1-0.1-1.4-0.4c-0.7-0.5-1.1-1.3-1.1-2.2c0.5-17-0.6-47.2-6-55.8
			c-6.3-10.2-15.6-35.8-17.2-41.9c-0.7-0.3-2.9-0.8-8.3-0.8c-10.1,0-26.2,2-33.1,4.9c-8.7,3.7-28.4,4-34.3,4
			c-11.4,0-21.8-0.8-27.6-2.2c-2.9-0.7-6.4-1.7-10-2.9c-6.7-2.1-14.2-4.4-19.6-4.4c-5,0-6.1,2-6.2,4.9c-0.4,16.3-5.9,27-15.8,41
			c-9.6,13.6-8.9,51.3-8.9,51.6c0,1-0.5,1.9-1.4,2.3c-0.9,0.4-1.9,0.3-2.7-0.3c-6.5-5.3-7.6-14.9-7.8-16.9c-1.6-4.7-4.2-9.4-5.6-9.9
			c-0.1,0.1-0.2,0.2-0.4,0.5c-0.6,0.8-1.7,1.2-2.7,0.9c-1-0.3-1.7-1.2-1.8-2.3c0-0.3-1.4-29.9,4.4-56.7c5.2-24.3,9.4-31,17.6-34.4
			c-0.2-5.6,1.5-20.7,23.5-37.4c28.9-21.8,62.7-34.4,92.8-34.4c16.8,0,36.1,0.8,51.6,7c19.1,7.5,28.8,21.7,28.8,42.2
			c0,23.1-1.2,32.2-1.9,37.7c-0.6,4.8-0.8,6.2,0.6,12.2c3.4,14.1,9.8,50.9,8.1,74.3c-1,13.9-12.2,19-12.7,19.2
			C938.3,276.4,938,276.5,937.6,276.5z M903.6,170.3c8.7,0,12.4,1.2,13.1,4.1c0.7,4.1,10.6,31.3,16.7,41c6.5,10.4,6.9,41.8,6.8,53.8
			c2.6-2.3,5.7-6.3,6.2-12.6c1.6-22.9-4.7-58.9-8-72.8c-1.6-6.9-1.4-9-0.7-14c0.7-5.3,1.9-14.3,1.9-37c0-38.9-38.1-44.1-75.4-44.1
			c-28.6,0-62.2,12.5-89.8,33.3c-24.4,18.4-21.4,34.4-21.4,34.5c0.3,1.2-0.5,2.5-1.7,2.9c-6.3,2.1-10.5,4.8-16.2,31.4
			c-4.4,20.5-4.5,42.8-4.4,51.6c5.4,0,9.1,9.6,10.5,13.7c0.1,0.2,0.1,0.4,0.1,0.7c0,0.1,0.2,4,1.9,8c0.3-12.3,1.9-35.9,9.7-47
			c9.3-13.2,14.5-23.2,14.9-38.2c0.1-3.7,1.7-9.8,11.2-9.8c6.1,0,14,2.5,21,4.6c3.6,1.1,6.9,2.1,9.7,2.8c5.5,1.3,15.6,2.1,26.5,2.1
			c14.8,0,27.2-1.4,32.4-3.6C876.2,172.4,892.9,170.3,903.6,170.3z"/>
	</g>
</g>
<g id="glasses">
	<g>
		<path fill="#231F20" d="M795.7,311.2c-23,0-39-11.5-44-31.4c-3.5-14-0.6-29.9,6.1-33.5c7.5-4,25.2-5.4,39.3-5.4
			c12.9,0,24.6,1.1,32.2,3c8.6,2.3,13.2,13.1,11.4,26.9c-2.5,19.5-17.6,40.4-44.8,40.4H795.7z M797.1,247.8c-16.4,0-30.9,1.8-36,4.6
			c-2.3,1.2-5.8,12.8-2.6,25.6c5.7,22.8,25.8,26.1,37.2,26.1h0.2c26.4,0,36.3-21.6,37.9-34.3c1.3-9.8-1.3-17.9-6.2-19.2
			C820.6,248.9,809.5,247.8,797.1,247.8z"/>
		<path fill="#231F20" d="M892.7,309.9C892.7,309.9,892.7,309.9,892.7,309.9h-0.2c-27.3,0-42.4-21.1-44.9-40.7
			c-1.7-13.7,2.9-24.5,11.4-26.7c7.5-1.9,19.3-3,32.2-3c14.1,0,31.8,1.4,39.3,5.4c6.7,3.6,9.6,19.6,6.1,33.5
			C931.7,298.4,915.7,309.9,892.7,309.9z M891.3,246.5c-12.4,0-23.4,1-30.4,2.8c-4.8,1.2-7.5,9.2-6.2,19
			c1.6,12.8,11.4,34.5,37.9,34.5h0.2c0,0,0,0,0,0c11.5,0,31.5-3.4,37.2-26.1c3.2-12.9-0.3-24.4-2.6-25.6
			C922.1,248.4,907.6,246.5,891.3,246.5z"/>
		<path fill="#231F20" d="M852.9,256.1c-0.5,0-1-0.1-1.5-0.4c-6.9-3.3-15.2,0-15.3,0.1c-1.8,0.7-3.8-0.1-4.6-1.9
			c-0.7-1.8,0.1-3.8,1.9-4.6c0.5-0.2,11.3-4.6,21,0.1c1.7,0.8,2.5,2.9,1.6,4.7C855.5,255.4,854.2,256.1,852.9,256.1z"/>
		<path fill="#231F20" d="M739.6,259.6c-1.7,0-3.2-1.2-3.5-2.9c-0.3-1.9,1-3.7,2.9-4l16.6-2.7c1.9-0.3,3.7,1,4,2.9
			c0.3,1.9-1,3.7-2.9,4l-16.6,2.7C740,259.6,739.8,259.6,739.6,259.6z"/>
	</g>
</g>
<g id="aboutClothes" display="none">
	
		<polygon display="inline" fill="#0F084B" stroke="#231F20" stroke-width="5" stroke-linecap="round" stroke-linejoin="round" stroke-miterlimit="10" points="
		770.9,714.6 909.5,714.6 910.2,976.5 770.9,976.5 	"/>
	
		<path display="inline" fill="#C2E7D9" stroke="#231F20" stroke-width="5" stroke-linecap="round" stroke-linejoin="round" stroke-miterlimit="10" d="
		M870.1,502.6c0,0,1.9,39.6-31,39.6h0.9c-33,0-31.5-39.7-31.5-39.7l-37.4,6.1v216.2h137.9V508.3L870.1,502.6z"/>
	<g display="inline">
		
			<path fill="#A6CFD5" stroke="#231F20" stroke-width="5" stroke-linecap="round" stroke-linejoin="round" stroke-miterlimit="10" d="
			M769.4,617.2l-43.2-0.3c0,0,0-0.4,0-56.3s30-52.1,30-52.1l55.2-12.6c0,0-13,36.8,7.8,57.6l-1.7,214.8h-46.6V576"/>
		
			<path fill="#A6CFD5" stroke="#231F20" stroke-width="5" stroke-linecap="round" stroke-linejoin="round" stroke-miterlimit="10" d="
			M817.8,553.4c0,0-19.4,0.9-23.9,9.8c0,0-17.2-42.4,1.3-63.7l16-12.9C811.2,486.6,804.8,521.9,817.8,553.4z"/>
		
			<polygon fill="#A6CFD5" stroke="#231F20" stroke-width="5" stroke-linecap="round" stroke-linejoin="round" stroke-miterlimit="10" points="
			770.3,645.7 719.8,645.7 719.8,616.9 770.9,617.2 		"/>
	</g>
	<g display="inline">
		
			<path fill="#A6CFD5" stroke="#231F20" stroke-width="5" stroke-linecap="round" stroke-linejoin="round" stroke-miterlimit="10" d="
			M911.7,617.2l43.2-0.3c0,0,0-0.4,0-56.3s-30.1-52.1-30.1-52.1l-53.9-12.6c0,0,11.8,36.8-9.1,57.6l1.5,214.8h47V576"/>
		
			<path fill="#A6CFD5" stroke="#231F20" stroke-width="5" stroke-linecap="round" stroke-linejoin="round" stroke-miterlimit="10" d="
			M862.9,553.4c0,0,19.4,0.9,23.9,9.8c0,0,17.2-42.4-1.3-63.7l-14.7-12.9C870.8,486.6,876.1,521.9,862.9,553.4z"/>
		
			<polygon fill="#A6CFD5" stroke="#231F20" stroke-width="5" stroke-linecap="round" stroke-linejoin="round" stroke-miterlimit="10" points="
			910.4,645.7 961.3,645.7 961.3,616.9 910,617.2 		"/>
	</g>
	
		<line display="inline" fill="none" stroke="#231F20" stroke-width="5" stroke-linecap="round" stroke-linejoin="round" stroke-miterlimit="10" x1="842.5" y1="763.2" x2="842.6" y2="976.5"/>
	
		<path display="inline" fill="#26408B" stroke="#231F20" stroke-width="5" stroke-linecap="round" stroke-linejoin="round" stroke-miterlimit="10" d="
		M842.5,1006.5c0,0-29.6,15.3-39.5,9.3c-9.8-6-5.5-20.4-32.1-19.5c0,0-41.9,25.9-64.1,26.4c-22.1,0.4-38.3,9.8-27.7,36.1
		c10.6,26.3,93.1,16.1,113.9,4.2s27.6-1.7,49.3-16.6C842.5,1048.6,842.5,1006.5,842.5,1006.5z"/>
	
		<path display="inline" fill="#FFFFFF" stroke="#231F20" stroke-width="5" stroke-linecap="round" stroke-linejoin="round" stroke-miterlimit="10" d="
		M676.2,1047.7c0,0,15.5,22.2,55.2,16.7c39.9-5.5,52.4-14.6,69.2-16.6c16.9-2,36-5.9,41.9-10.3v13.7c0,0-84.3,30-123.6,27.2
		C679.3,1075.7,672.6,1060.5,676.2,1047.7z"/>
	
		<path display="inline" fill="#26408B" stroke="#231F20" stroke-width="5" stroke-linecap="round" stroke-linejoin="round" stroke-miterlimit="10" d="
		M842.5,1006.5c0,0,29.9,15.3,39.7,9.3c9.8-6,5.6-20.4,32.3-19.5c0,0,42,25.9,64.1,26.4c22.1,0.4,38.3,9.8,27.7,36.1
		c-10.6,26.4-93.4,16.1-114.2,4.2c-20.8-11.9-27.8-1.7-49.6-16.6C842.5,1048.6,842.5,1006.5,842.5,1006.5z"/>
	
		<path display="inline" fill="#FFFFFF" stroke="#231F20" stroke-width="5" stroke-linecap="round" stroke-linejoin="round" stroke-miterlimit="10" d="
		M1009.3,1047.7c0,0-15.5,22.2-55.2,16.7c-39.9-5.5-52.6-14.6-69.5-16.6c-16.9-2-35.8-5.9-42.2-10.3v13.7c0,0,84.6,30,123.9,27.2
		C1005.8,1075.7,1012.9,1060.5,1009.3,1047.7z"/>
	
		<rect x="762" y="976.5" display="inline" fill="#0F084B" stroke="#231F20" stroke-width="5" stroke-linecap="round" stroke-linejoin="round" stroke-miterlimit="10" width="154.6" height="20.4"/>
	
		<line display="inline" fill="none" stroke="#231F20" stroke-width="5" stroke-linecap="round" stroke-linejoin="round" stroke-miterlimit="10" x1="842.5" y1="977.1" x2="842.5" y2="997.5"/>
	
		<path display="inline" fill="#FFFFFF" stroke="#231F20" stroke-width="5" stroke-linecap="round" stroke-linejoin="round" stroke-miterlimit="10" d="
		M949.1,1063.8c0,0-6-32.8,29.4-41.1c29.5-6.9,36.1,20.8,30.8,26.4C1003.9,1054.6,979.9,1070.4,949.1,1063.8z"/>
	
		<path display="inline" fill="#FFFFFF" stroke="#231F20" stroke-width="5" stroke-linecap="round" stroke-linejoin="round" stroke-miterlimit="10" d="
		M737.3,1063.8c0,0,6-32.8-29.4-41.1c-29.5-6.9-36.1,20.8-30.8,26.4C682.7,1054.6,706.6,1070.4,737.3,1063.8z"/>
</g>
<g id="workClothes">
	<g>
		<polygon fill="#114B5F" points="770.9,714.6 909.5,714.6 910.2,991.8 770.9,991.8 		"/>
		<path fill="#231F20" d="M910.2,994.3C910.2,994.3,910.2,994.3,910.2,994.3H770.9c-1.4,0-2.5-1.1-2.5-2.5V714.6
			c0-1.4,1.1-2.5,2.5-2.5h138.6c1.4,0,2.5,1.1,2.5,2.5l0.6,276.9c0,0.1,0,0.2,0,0.3C912.7,993.2,911.6,994.3,910.2,994.3z
			 M773.4,989.3h134.2L907,717.1H773.4V989.3z"/>
	</g>
	<g>
		<path fill="#FFFFFF" d="M870.1,502.6c0,0,1.9,39.6-31,39.6h0.9c-33,0-31.5-39.7-31.5-39.7l-37.4,6.1v216.2h137.9V508.3
			L870.1,502.6z"/>
		<path fill="#231F20" d="M908.9,727.3H770.9c-1.4,0-2.5-1.1-2.5-2.5V508.6c0-1.2,0.9-2.3,2.1-2.5L808,500c0.7-0.1,1.5,0.1,2.1,0.6
			c0.6,0.5,0.9,1.2,0.8,2c0,0.2-0.5,18.9,9.7,29.6c4.7,4.9,11,7.5,18.9,7.6c7.8-0.1,14.1-2.6,18.8-7.5c10.1-10.7,9.3-29.2,9.3-29.4
			c0-0.7,0.3-1.5,0.8-2c0.6-0.5,1.3-0.7,2-0.6l38.8,5.7c1.2,0.2,2.1,1.2,2.1,2.5v216.5C911.4,726.2,910.3,727.3,908.9,727.3z
			 M773.4,722.3h132.9V510.5l-33.8-5c-0.2,6.2-1.7,20.5-10.7,30.1c-5.5,5.8-12.8,8.9-21.7,9.1c-0.1,0-0.2,0-0.3,0H839
			c-0.1,0-0.2,0-0.3,0c-8.9-0.2-16.2-3.3-21.8-9.1c-9.2-9.6-10.8-24-11.1-30.2l-32.5,5.3V722.3z"/>
	</g>
	<g>
		<g>
			<path fill="#E4FDE1" d="M769.4,655.5l-43.2-0.3c0,0,0-38.7,0-94.6s30-52.1,30-52.1l54.8-12.6c0,0-10.7,43.8,26.3,47.4v202.1
				h-66.4V576"/>
			<path fill="#231F20" d="M837.4,747.8h-66.4c-1.4,0-2.5-1.1-2.5-2.5V658l-42.2-0.2c-1.4,0-2.5-1.1-2.5-2.5v-94.6
				c0-23.2,5-39.4,15-48.2c7.5-6.6,15.3-6.6,17.4-6.5l54.4-12.6c0.8-0.2,1.7,0.1,2.3,0.7s0.9,1.5,0.7,2.3c-0.1,0.2-5,21.1,4.2,34
				c4.2,6,10.9,9.4,19.9,10.3c1.3,0.1,2.3,1.2,2.3,2.5v202.1C839.9,746.7,838.7,747.8,837.4,747.8z M773.4,742.8h61.4V545.4
				c-9.4-1.4-16.5-5.4-21.2-12.1c-8-11.3-6.9-27-5.8-34.2l-51.1,11.8c-0.3,0.1-0.6,0.1-0.9,0c-0.3,0-7.2-0.8-14,5.3
				c-8.6,7.7-13.2,23-13.2,44.3v92.2l39.7,0.2V576c0-1.4,1.1-2.5,2.5-2.5s2.5,1.1,2.5,2.5V742.8z"/>
		</g>
		<g>
			<path fill="#E4FDE1" d="M834.4,541.9c0,0-19.4,0.9-23.9,9.8c0,0-33.8-30.9-15.3-52.2l16-12.9
				C811.2,486.6,805.8,519.7,834.4,541.9z"/>
			<path fill="#231F20" d="M810.5,554.3c-0.6,0-1.2-0.2-1.7-0.7c-0.4-0.3-8.8-8.1-15.1-18.7c-8.6-14.6-8.8-27.4-0.5-37
				c0.1-0.1,0.2-0.2,0.3-0.3l16-12.9c0.8-0.7,1.9-0.7,2.8-0.2c0.9,0.5,1.4,1.5,1.2,2.6c0,0.3-4.7,31.9,22.3,52.9
				c0.8,0.6,1.2,1.7,0.8,2.7c-0.3,1-1.2,1.7-2.3,1.7c-5,0.2-18.6,2.2-21.8,8.5c-0.4,0.7-1,1.2-1.8,1.3
				C810.8,554.3,810.7,554.3,810.5,554.3z M796.9,501.3c-13.9,16.3,6.5,39.7,13.2,46.6c2.7-3,7.2-5.3,13.4-6.8
				c1.7-0.4,3.4-0.7,4.8-1c-18.2-16.8-20.3-37.8-20.1-47.9L796.9,501.3z"/>
		</g>
		<g>
			<polygon fill="#E4FDE1" points="770.3,684 719.8,684 719.8,655.2 770.9,655.5 			"/>
			<path fill="#231F20" d="M770.3,686.5h-50.5c-1.4,0-2.5-1.1-2.5-2.5v-28.7c0-0.7,0.3-1.3,0.7-1.8c0.5-0.5,1.1-0.7,1.8-0.7
				c0,0,0,0,0,0l51.1,0.3c0.7,0,1.3,0.3,1.8,0.8s0.7,1.1,0.7,1.8l-0.6,28.5C772.8,685.4,771.7,686.5,770.3,686.5z M722.3,681.5h45.5
				l0.5-23.5l-46-0.2V681.5z"/>
		</g>
	</g>
	<g>
		<g>
			<path fill="#E4FDE1" d="M911.7,655.5l43.2-0.3c0,0,0-38.7,0-94.6s-30.1-52.1-30.1-52.1l-54.3-12.6c0,0,8,35.5-33.1,47.4v202.1
				h72.8V576"/>
			<path fill="#231F20" d="M910.2,747.8h-72.8c-1.4,0-2.5-1.1-2.5-2.5V543.2c0-1.1,0.7-2.1,1.8-2.4c38.3-11.1,31.6-43.1,31.3-44.4
				c-0.2-0.8,0.1-1.7,0.7-2.3c0.6-0.6,1.5-0.9,2.3-0.7l53.9,12.6c2.1-0.1,9.9-0.1,17.5,6.5c9.9,8.8,15,25,15,48.1v94.6
				c0,1.4-1.1,2.5-2.5,2.5l-42.2,0.2v87.3C912.7,746.7,911.5,747.8,910.2,747.8z M839.9,742.8h67.8V576c0-1.4,1.1-2.5,2.5-2.5
				s2.5,1.1,2.5,2.5V653l39.7-0.2v-92.2c0-21.3-4.6-36.6-13.2-44.3c-6.9-6.1-13.9-5.4-14.2-5.4c-0.3,0-0.6,0-0.9,0l-50.7-11.8
				c0.3,3.8,0.3,9.9-1.7,16.7c-5.2,17.3-19.8,25.5-31.9,29.3V742.8z"/>
		</g>
		<g>
			<path fill="#E4FDE1" d="M845,543.2c0,0,19.4,0.9,23.9,9.8c0,0,35.1-32.2,16.6-53.5l-14.7-12.9C870.8,486.6,879.9,523.3,845,543.2
				z"/>
			<path fill="#231F20" d="M868.9,555.5c-0.2,0-0.3,0-0.5,0c-0.8-0.1-1.4-0.6-1.8-1.3c-3.1-6.3-16.8-8.2-21.8-8.5
				c-1.1-0.1-2.1-0.8-2.3-1.9s0.2-2.2,1.2-2.8c32.9-18.8,24.7-53.5,24.6-53.8c-0.3-1.1,0.2-2.2,1.1-2.7c0.9-0.6,2.1-0.5,2.9,0.3
				l14.7,12.9c0.1,0.1,0.2,0.2,0.2,0.2c8.4,9.6,8,22.7-1.1,37.7c-6.6,10.9-15.3,19-15.7,19.3C870.1,555.3,869.5,555.5,868.9,555.5z
				 M852.2,541.5c5.6,1,12.9,3.1,17,7.7c7-7.1,28.5-31.5,14.5-47.9l-9.6-8.4C874.9,504,873.4,526.1,852.2,541.5z"/>
		</g>
		<g>
			<polygon fill="#E4FDE1" points="910.4,684 961.3,684 961.3,655.2 910,655.5 			"/>
			<path fill="#231F20" d="M961.2,686.5h-50.8c-1.4,0-2.5-1.1-2.5-2.5l-0.4-28.5c0-0.7,0.2-1.3,0.7-1.8c0.5-0.5,1.1-0.7,1.8-0.7
				l51.2-0.3c0,0,0,0,0,0c0.7,0,1.3,0.3,1.8,0.7c0.5,0.5,0.7,1.1,0.7,1.8V684C963.8,685.4,962.6,686.5,961.2,686.5z M912.9,681.5
				h45.9v-23.7l-46.2,0.2L912.9,681.5z"/>
		</g>
	</g>
	<path fill="#231F20" d="M842.6,994.3c-1.4,0-2.5-1.1-2.5-2.5L840,763.2c0-1.4,1.1-2.5,2.5-2.5h0c1.4,0,2.5,1.1,2.5,2.5l0.1,228.6
		C845.1,993.2,844,994.3,842.6,994.3L842.6,994.3z"/>
	<g>
		<path fill="#5B4224" d="M842.5,1006.5c0,0-29.6,15.3-39.5,9.3c-9.8-6-5.5-20.4-32.1-19.5c0,0-42.7,20.9-64.1,26.4
			c-27.6,7-34.9,22.4-27.7,36.1c13.2,25.2,93.1,16.1,113.9,4.2s27.6-1.7,49.3-16.6C842.5,1048.6,842.5,1006.5,842.5,1006.5z"/>
		<path fill="#231F20" d="M728.6,1077.4c-37.1,0-48.3-10.9-51.7-17.4c-3.4-6.6-3.8-13.4-1-19.6c2.9-6.4,10.4-15,30.3-20.1
			c21-5.4,63.2-26.1,63.6-26.3c0.3-0.2,0.7-0.2,1-0.3c0.8,0,1.6,0,2.4,0c17.4,0,21.6,7,25.3,13.1c1.7,2.8,3.1,5.2,5.8,6.8
			c1.1,0.7,2.8,1,4.9,1c11.8,0,31.9-10.3,32.1-10.4c0.8-0.4,1.7-0.4,2.4,0.1c0.7,0.5,1.2,1.3,1.2,2.1c0,0,0,10,0,20c0,5,0,10,0,13.8
			c0,3.1,0,4.9-0.1,6c0,0,0,0,0,0.1h0c-0.1,1.4-0.3,1.6-0.7,2c-0.3,0.2-0.5,0.4-0.9,0.6c-11.8,8-19.5,8.8-27,9.7
			c-6.5,0.7-12.7,1.4-21.9,6.7C782.3,1072.1,753.4,1077.4,728.6,1077.4z M771.5,998.8c-5,2.5-43.6,21.1-64.1,26.4
			c-14.2,3.6-23.6,9.6-27,17.3c-2.1,4.8-1.8,10,0.9,15.3c4.9,9.3,22.1,14.7,47.3,14.7c21.2,0,50.6-4.3,63.2-11.5
			c10.2-5.8,17.1-6.6,23.9-7.3c7.1-0.8,13.8-1.5,24.2-8.5c0.1-4.7,0.1-21.4,0.1-34.6c-6.6,3.1-20.9,9.2-30.8,9.2c0,0,0,0,0,0
			c-3.1,0-5.6-0.6-7.5-1.8c-3.7-2.3-5.6-5.5-7.5-8.5c-3.3-5.5-6.4-10.7-21-10.7C772.7,998.7,772.1,998.7,771.5,998.8z"/>
	</g>
	<circle fill="#231F20" cx="848.2" cy="555" r="3.2"/>
	<circle fill="#231F20" cx="848.2" cy="644.4" r="3.2"/>
	<circle fill="#231F20" cx="848.2" cy="689.1" r="3.2"/>
	<circle fill="#231F20" cx="848.2" cy="599.7" r="3.2"/>
	<circle fill="#231F20" cx="848.2" cy="733.8" r="3.2"/>
	<g>
		<polygon fill="#F45B69" points="826.5,569 849.5,569 857.3,714.6 838.2,733.8 820.7,714 		"/>
		<path fill="#231F20" d="M838.2,736.3C838.2,736.3,838.2,736.3,838.2,736.3c-0.8,0-1.4-0.3-1.9-0.8l-17.5-19.8
			c-0.4-0.5-0.7-1.1-0.6-1.8l5.7-145c0.1-1.3,1.2-2.4,2.5-2.4h23c1.3,0,2.4,1,2.5,2.4l7.8,145.6c0,0.7-0.2,1.4-0.7,1.9l-19,19.2
			C839.5,736,838.9,736.3,838.2,736.3z M823.3,713.1l15.1,17l16.4-16.5l-7.6-142.1h-18.2L823.3,713.1z"/>
	</g>
	<g>
		<path fill="#F45B69" d="M817.2,546c0,0,19.7-8.3,42.2,0c0,0-2.6,27.5-22,27.5C817.9,573.5,817.2,546,817.2,546z"/>
		<path fill="#231F20" d="M837.4,576c-17.3,0-22.4-19.6-22.7-29.9c0-1,0.6-2,1.5-2.4c0.4-0.2,9.4-3.9,22.2-3.9
			c7.5,0,14.9,1.3,21.8,3.8c1.1,0.4,1.7,1.4,1.6,2.6C860.9,556.5,854.5,576,837.4,576z M819.8,547.7c0.2,2.4,0.9,6.9,2.6,11.2
			c3.1,8,8.1,12,15,12c14.1,0,18.2-17.4,19.2-23.3c-5.8-1.9-11.9-2.9-18.2-2.9C829.7,544.8,822.8,546.7,819.8,547.7z"/>
	</g>
	<g>
		<path fill="#5B4224" d="M843.7,1006.5c0,0,29.8,15.3,39.5,9.3c9.8-6,5.5-20.4,32.2-19.5c0,0,42.7,20.9,64.1,26.4
			c27.6,7,34.9,22.4,27.7,36.1c-13.2,25.2-93.1,16.1-114.1,4.2c-20.9-11.9-27.6-1.7-49.3-16.6
			C843.7,1048.6,843.7,1006.5,843.7,1006.5z"/>
		<path fill="#231F20" d="M957.7,1077.4c-24.9,0-53.8-5.3-65.8-12.2c-9.3-5.3-15.5-6-22-6.7c-7.4-0.8-15.1-1.7-26.9-9.6
			c-1.2-0.3-1.6-1.4-1.7-2.6h0v0c0-0.5,0-1-0.1-1.5c0-1.1,0-2.7,0-4.6c0-3.8,0-8.8,0-13.8c0-10,0-20,0-20c0-0.9,0.5-1.7,1.2-2.1
			s1.7-0.5,2.4-0.1c0.2,0.1,20.4,10.4,32.2,10.4c2.1,0,3.8-0.3,4.8-1c2.7-1.6,4.1-4,5.8-6.8c3.7-6.2,7.9-13.1,25.4-13.1
			c0.8,0,1.6,0,2.4,0c0.4,0,0.7,0.1,1,0.3c0.4,0.2,42.7,20.9,63.6,26.3c19.9,5.1,27.5,13.7,30.3,20.1c2.8,6.2,2.4,13-1,19.6
			C1006.1,1066.5,994.8,1077.4,957.7,1077.4z M846.3,1045.1c10.5,7,17.1,7.7,24.2,8.5c6.7,0.7,13.7,1.5,23.9,7.3
			c10,5.7,36.4,11.5,63.3,11.5c25.2,0,42.4-5.4,47.3-14.7c2.7-5.2,3-10.5,0.9-15.3c-3.5-7.7-12.8-13.7-27-17.3
			c-20.5-5.2-59.1-23.9-64.1-26.4c-0.6,0-1.1,0-1.7,0c-14.7,0-17.8,5.2-21.1,10.7c-1.8,3.1-3.8,6.3-7.5,8.5
			c-1.9,1.2-4.4,1.8-7.5,1.8c-9.9,0-24.1-6.1-30.8-9.2C846.2,1023.7,846.3,1040.4,846.3,1045.1z"/>
	</g>
	<path fill="#231F20" d="M821.3,702.1c-0.6,0-1.2-0.2-1.7-0.7c-1-1-1-2.5-0.1-3.5l33.1-34.4c1-1,2.5-1,3.5-0.1c1,1,1,2.5,0.1,3.5
		l-33.1,34.4C822.6,701.8,821.9,702.1,821.3,702.1z"/>
	<path fill="#231F20" d="M822.2,682.1c-0.6,0-1.2-0.2-1.7-0.7c-1-1-1-2.5-0.1-3.5l30.9-32.3c1-1,2.5-1,3.5-0.1c1,1,1,2.5,0.1,3.5
		L824,681.4C823.5,681.9,822.8,682.1,822.2,682.1z"/>
	<path fill="#231F20" d="M822.9,662.2c-0.6,0-1.3-0.2-1.8-0.7c-1-1-1-2.6,0-3.5l29.8-29.8c1-1,2.6-1,3.5,0s1,2.6,0,3.5l-29.8,29.8
		C824.2,662,823.6,662.2,822.9,662.2z"/>
	<path fill="#231F20" d="M824.2,641.8c-0.6,0-1.3-0.2-1.8-0.7c-1-1-1-2.6,0-3.5l27.2-27.2c1-1,2.6-1,3.5,0s1,2.6,0,3.5L826,641
		C825.5,641.5,824.8,641.8,824.2,641.8z"/>
	<path fill="#231F20" d="M824.5,622.4c-0.6,0-1.3-0.2-1.8-0.7c-1-1-1-2.6,0-3.5l26.3-26.3c1-1,2.6-1,3.5,0s1,2.6,0,3.5l-26.3,26.3
		C825.7,622.1,825.1,622.4,824.5,622.4z"/>
	<path fill="#231F20" d="M825.5,602.2c-0.6,0-1.3-0.2-1.8-0.7c-1-1-1-2.6,0-3.5l24.4-24.4c1-1,2.6-1,3.5,0s1,2.6,0,3.5l-24.4,24.4
		C826.8,601.9,826.1,602.2,825.5,602.2z"/>
	<path fill="#231F20" d="M832.2,729.5c-0.6,0-1.3-0.2-1.8-0.7c-1-1-1-2.6,0-3.5l24.3-24.4c1-1,2.6-1,3.5,0c1,1,1,2.6,0,3.5
		L834,728.8C833.5,729.3,832.9,729.5,832.2,729.5z"/>
	<path fill="#231F20" d="M823.2,719.3c-0.6,0-1.3-0.2-1.8-0.7c-1-1-1-2.6,0-3.5l32.3-32.2c1-1,2.6-1,3.5,0c1,1,1,2.6,0,3.5
		l-32.3,32.2C824.5,719.1,823.8,719.3,823.2,719.3z"/>
	<path fill="#231F20" d="M826.1,582.4c-0.6,0-1.3-0.2-1.8-0.7c-1-1-1-2.6,0-3.5l31.2-31.2c1-1,2.6-1,3.5,0s1,2.6,0,3.5l-31.2,31.2
		C827.4,582.1,826.8,582.4,826.1,582.4z"/>
	<path fill="#231F20" d="M822.7,566.7c-0.6,0-1.3-0.2-1.8-0.7c-1-1-1-2.6,0-3.5l20.9-20.9c1-1,2.6-1,3.5,0s1,2.6,0,3.5l-20.9,20.9
		C823.9,566.4,823.3,566.7,822.7,566.7z"/>
	<path fill="#231F20" d="M817.8,552.4c-0.6,0-1.3-0.2-1.8-0.7c-1-1-1-2.6,0-3.5l5.9-5.9c1-1,2.6-1,3.5,0s1,2.6,0,3.5l-5.9,5.9
		C819.1,552.1,818.4,552.4,817.8,552.4z"/>
</g>
<g id="homeClothes" display="none">
	<g display="inline">
		
			<path fill="#FFFFFF" stroke="#231F20" stroke-width="5" stroke-linecap="round" stroke-linejoin="round" stroke-miterlimit="10" d="
			M910.2,711.4V586.9h46c0,0,0,0,0-30c0-39-32.4-43.9-37.9-43.9c-5.5,0-48.3-10.1-48.3-10.1l-0.1,0.4c0,18.5-4.6,43.4-30.4,43.4
			c-25.8,0-28.9-26.1-28.9-43.9c0,0-41.8,10.1-47.3,10.1c-5.5,0-38.3,5-38.3,43.9c0,30,0,30,0,30h46v125.2h138.6L910.2,711.4z"/>
	</g>
	
		<line display="inline" fill="none" stroke="#231F20" stroke-width="5" stroke-linecap="round" stroke-linejoin="round" stroke-miterlimit="10" x1="770.9" y1="587.5" x2="770.9" y2="569.7"/>
	
		<line display="inline" fill="none" stroke="#231F20" stroke-width="5" stroke-linecap="round" stroke-linejoin="round" stroke-miterlimit="10" x1="910.2" y1="587.5" x2="910.2" y2="569.7"/>
	<g display="inline">
		
			<rect x="770.9" y="712.1" fill="#247BA0" stroke="#231F20" stroke-width="5" stroke-linecap="round" stroke-linejoin="round" stroke-miterlimit="10" width="139.2" height="148.2"/>
		
			<line fill="none" stroke="#231F20" stroke-width="5" stroke-linecap="round" stroke-linejoin="round" stroke-miterlimit="10" x1="843.7" y1="758.7" x2="843.7" y2="860.9"/>
	</g>
	
		<path display="inline" fill="#F25F5C" stroke="#231F20" stroke-width="5" stroke-linecap="round" stroke-linejoin="round" stroke-miterlimit="10" d="
		M842.5,1006.5c0,0-29.6,15.3-39.5,9.3c-9.8-6-5.5-20.4-32.1-19.5c0,0-41.9,25.9-64.1,26.4c-22.1,0.4-38.3,9.8-27.7,36.1
		c10.6,26.3,93.1,16.1,113.9,4.2s27.6-1.7,49.3-16.6C842.5,1048.6,842.5,1006.5,842.5,1006.5z"/>
	
		<path display="inline" fill="#FFFFFF" stroke="#231F20" stroke-width="5" stroke-linecap="round" stroke-linejoin="round" stroke-miterlimit="10" d="
		M676.2,1047.7c0,0,15.5,22.2,55.2,16.7c39.9-5.5,52.4-14.6,69.2-16.6c16.9-2,36-5.9,41.9-10.3v13.7c0,0-84.3,30-123.6,27.2
		C679.3,1075.7,672.6,1060.5,676.2,1047.7z"/>
	
		<path display="inline" fill="#F25F5C" stroke="#231F20" stroke-width="5" stroke-linecap="round" stroke-linejoin="round" stroke-miterlimit="10" d="
		M842.5,1006.5c0,0,29.9,15.3,39.7,9.3c9.8-6,5.6-20.4,32.3-19.5c0,0,42,25.9,64.1,26.4c22.1,0.4,38.3,9.8,27.7,36.1
		c-10.6,26.4-93.4,16.1-114.2,4.2c-20.8-11.9-27.8-1.7-49.6-16.6C842.5,1048.6,842.5,1006.5,842.5,1006.5z"/>
	
		<path display="inline" fill="#FFFFFF" stroke="#231F20" stroke-width="5" stroke-linecap="round" stroke-linejoin="round" stroke-miterlimit="10" d="
		M1009.3,1047.7c0,0-15.5,22.2-55.2,16.7c-39.9-5.5-52.6-14.6-69.5-16.6c-16.9-2-35.8-5.9-42.2-10.3v13.7c0,0,84.6,30,123.9,27.2
		C1005.8,1075.7,1012.9,1060.5,1009.3,1047.7z"/>
	
		<path display="inline" fill="none" stroke="#231F20" stroke-width="2" stroke-linecap="round" stroke-linejoin="round" stroke-miterlimit="10" stroke-dasharray="4,4" d="
		M789.1,712.1c0,0-2.2,43.8-18.1,43.8"/>
	
		<path display="inline" fill="none" stroke="#231F20" stroke-width="2" stroke-linecap="round" stroke-linejoin="round" stroke-miterlimit="10" stroke-dasharray="4,4" d="
		M890.6,712.1c0,0,2.4,43.8,19.4,43.8"/>
	<g display="inline">
		
			<path fill="#50514F" stroke="#231F20" stroke-width="5" stroke-linecap="round" stroke-linejoin="round" stroke-miterlimit="10" d="
			M878.2,515.4c24.9,7.7,31.9,71.5,31.9,71.5h46c0,0,0,0,0-30c0-39-32.4-43.9-37.9-43.9c-5.5,0-48.3-10.1-48.3-10.1l-0.1,0.4
			c0,18.5-4.6,43.4-30.4,43.4c-25.8,0-28.9-26.1-28.9-43.9c0,0-41.8,10.1-47.3,10.1c-5.5,0-38.3,5-38.3,43.9c0,30,0,30,0,30h46
			c0,0,4.5-64.2,30.7-72.8c0,43.2,38.3,42.2,38.3,42.2s0.6,0,1.3,0C874.6,556.2,878.2,515.4,878.2,515.4z"/>
	</g>
	
		<path display="inline" fill="#FFFFFF" stroke="#231F20" stroke-width="5" stroke-linecap="round" stroke-linejoin="round" stroke-miterlimit="10" d="
		M949.1,1063.8c0,0-6-32.8,29.4-41.1c29.5-6.9,36.1,20.8,30.8,26.4C1003.9,1054.6,979.9,1070.4,949.1,1063.8z"/>
	
		<path display="inline" fill="#FFFFFF" stroke="#231F20" stroke-width="5" stroke-linecap="round" stroke-linejoin="round" stroke-miterlimit="10" d="
		M737.3,1063.8c0,0,6-32.8-29.4-41.1c-29.5-6.9-36.1,20.8-30.8,26.4C682.7,1054.6,706.6,1070.4,737.3,1063.8z"/>
</g>
<g id="contactClothes" display="none">
	
		<polygon display="inline" fill="#4281A4" stroke="#231F20" stroke-width="5" stroke-linecap="round" stroke-linejoin="round" stroke-miterlimit="10" points="
		770.9,717.2 909.5,717.2 910.2,967.5 770.9,967.5 	"/>
	<g display="inline">
		
			<path fill="#FE938C" stroke="#231F20" stroke-width="5" stroke-linecap="round" stroke-linejoin="round" stroke-miterlimit="10" d="
			M769.4,606.9l-43.2-0.3c0,0,0,12.4,0-43.6s30-52.1,30-52.1l54.8-12.6c0,0-14.6,33.1,13.5,47.4l12.8,17.5v184.6h-66.4V578.6"/>
		
			<path fill="#FE938C" stroke="#231F20" stroke-width="5" stroke-linecap="round" stroke-linejoin="round" stroke-miterlimit="10" d="
			M824.2,545.8c0,0-16.9-0.4-21.3,8.6c0,0-26.2-30.9-7.7-52.2l16-12.9C811.2,489.2,802.2,523.9,824.2,545.8z"/>
	</g>
	<g display="inline">
		
			<path fill="#FE938C" stroke="#231F20" stroke-width="5" stroke-linecap="round" stroke-linejoin="round" stroke-miterlimit="10" d="
			M911.7,606.9l43.2-0.3c0,0,0,12.4,0-43.6S924.7,511,924.7,511l-54.3-12.6c0,0,6.5,27.2-20.3,47.4l-12.8,17.5v184.6h72.8V578.6"/>
		
			<path fill="#FE938C" stroke="#231F20" stroke-width="5" stroke-linecap="round" stroke-linejoin="round" stroke-miterlimit="10" d="
			M851.4,545.8c0,0,15.6-0.4,20.1,8.6c0,0,29.3-24.3,14.1-52.2l-14.7-12.9C870.8,489.2,879.5,527.2,851.4,545.8z"/>
	</g>
	<circle display="inline" fill="#231F20" cx="854.6" cy="561.3" r="3.2"/>
	<circle display="inline" fill="#231F20" cx="848.2" cy="646.9" r="3.2"/>
	<circle display="inline" fill="#231F20" cx="848.2" cy="691.6" r="3.2"/>
	<circle display="inline" fill="#231F20" cx="848.2" cy="602.2" r="3.2"/>
	<circle display="inline" fill="#231F20" cx="848.2" cy="736.3" r="3.2"/>
	
		<line display="inline" fill="none" stroke="#231F20" stroke-width="5" stroke-linecap="round" stroke-linejoin="round" stroke-miterlimit="10" x1="842.5" y1="773.4" x2="842.6" y2="967.5"/>
	
		<rect x="762" y="948.4" display="inline" fill="#91BED6" stroke="#231F20" stroke-width="5" stroke-linecap="round" stroke-linejoin="round" stroke-miterlimit="10" width="154.6" height="20.4"/>
	
		<line display="inline" fill="none" stroke="#231F20" stroke-width="5" stroke-linecap="round" stroke-linejoin="round" stroke-miterlimit="10" x1="842.5" y1="949" x2="842.5" y2="969.4"/>
	
		<path display="inline" fill="#9CAFB7" stroke="#231F20" stroke-width="5" stroke-linecap="round" stroke-linejoin="round" stroke-miterlimit="10" d="
		M842.5,1007.8c0,0-29.6,15.3-39.5,9.3s-5.5-20.4-32.1-19.5c0,0-41.9,25.9-64.1,26.4c-22.1,0.4-38.3,9.8-27.7,36.1
		c10.6,26.3,93.1,16.1,113.9,4.2s27.6-1.7,49.3-16.6C842.5,1049.9,842.5,1007.8,842.5,1007.8z"/>
	
		<path display="inline" fill="#FFFFFF" stroke="#231F20" stroke-width="5" stroke-linecap="round" stroke-linejoin="round" stroke-miterlimit="10" d="
		M676.2,1049c0,0,15.5,22.2,55.2,16.7c39.9-5.5,52.4-14.6,69.2-16.6c16.9-2,36-5.9,41.9-10.3v13.7c0,0-84.3,30-123.6,27.2
		C679.3,1077,672.6,1061.8,676.2,1049z"/>
	
		<path display="inline" fill="#9CAFB7" stroke="#231F20" stroke-width="5" stroke-linecap="round" stroke-linejoin="round" stroke-miterlimit="10" d="
		M842.5,1007.8c0,0,29.9,15.3,39.7,9.3s5.6-20.4,32.3-19.5c0,0,42,25.9,64.1,26.4c22.1,0.4,38.3,9.8,27.7,36.1
		c-10.6,26.4-93.4,16.1-114.2,4.2c-20.8-11.9-27.8-1.7-49.6-16.6C842.5,1049.9,842.5,1007.8,842.5,1007.8z"/>
	
		<path display="inline" fill="#FFFFFF" stroke="#231F20" stroke-width="5" stroke-linecap="round" stroke-linejoin="round" stroke-miterlimit="10" d="
		M1009.3,1049c0,0-15.5,22.2-55.2,16.7c-39.9-5.5-52.6-14.6-69.5-16.6c-16.9-2-35.8-5.9-42.2-10.3v13.7c0,0,84.6,30,123.9,27.2
		C1005.8,1077,1012.9,1061.8,1009.3,1049z"/>
</g>
</svg>
